<svg xmlns="http://www.w3.org/2000/svg" viewBox="0 0 960 540" role="img" aria-labelledby="title desc">
  <title id="title">Camera no signal</title>
  <desc id="desc">OpenBrain camera placeholder with a dark grid and no signal label.</desc>
  <defs>
    <linearGradient id="bg" x1="0" x2="1" y1="0" y2="1">
      <stop offset="0" stop-color="#05070b" />
      <stop offset="1" stop-color="#0d1726" />
    </linearGradient>
    <pattern id="grid" width="48" height="48" patternUnits="userSpaceOnUse">
      <path d="M 48 0 L 0 0 0 48" fill="none" stroke="#1e3a5f" stroke-opacity=".45" stroke-width="1" />
    </pattern>
  </defs>
  <rect width="960" height="540" fill="url(#bg)" />
  <rect width="960" height="540" fill="url(#grid)" />
  <rect x="280" y="176" width="400" height="188" rx="22" fill="#07111f" stroke="#3b82f6" stroke-opacity=".7" stroke-width="3" />
  <path d="M360 244h150l42-36h48c22 0 40 18 40 40v72c0 22-18 40-40 40H360c-22 0-40-18-40-40v-36c0-22 18-40 40-40Z" fill="#111827" stroke="#93c5fd" stroke-width="4" />
  <circle cx="482" cy="288" r="42" fill="none" stroke="#60a5fa" stroke-width="8" />
  <path d="m357 362 246-188" stroke="#ef4444" stroke-width="10" stroke-linecap="round" />
  <text x="480" y="414" fill="#dbeafe" font-family="ui-sans-serif, system-ui, -apple-system, BlinkMacSystemFont, Segoe UI, sans-serif" font-size="28" font-weight="700" text-anchor="middle" letter-spacing="4">NO SIGNAL</text>
  <text x="480" y="452" fill="#93c5fd" font-family="ui-monospace, SFMono-Regular, Menlo, monospace" font-size="16" text-anchor="middle">OPENBRAIN CAMERA STREAM</text>
</svg>
